<?xml version="1.0" encoding="utf-8"?>
<!-- Generator: Adobe Illustrator 25.1.0, SVG Export Plug-In . SVG Version: 6.00 Build 0)  -->
<svg version="1.1" id="Ebene_1" xmlns="http://www.w3.org/2000/svg" xmlns:xlink="http://www.w3.org/1999/xlink" x="0px" y="0px"
	 viewBox="0 0 1173.1 814.6" style="enable-background:new 0 0 1173.1 814.6;" xml:space="preserve">
<g transform="translate(0.000000,1600.000000) scale(0.100000,-0.100000)">
	<path d="M8637.6,15988.1c-166-46-404-225-531-399c-29-39-97-130-150-202c-140-189-300-475-378-675c-111-287-158-439-182-594
		c-5-33-16-81-24-108s-24-131-36-231c-29-254-24-532,13-655c28-93,78-173,145-232c54-47,393-252,447-270c89-29,228,9,360,100
		c157,109,250,180,277,213c16,20,38,39,49,42s40,32,64,64c25,32,69,73,98,91c67,42,78,56,78,97c0,33,0,33-27,19c-16-8-41-29-58-46
		c-16-17-39-37-50-43c-16-8-14-3,8,24c56,69,82,112,70,116c-8,3-8,11,2,30c7,14,11,32,8,39c-6,17,9,18,25,2c9-9,12-8,12,5
		c0,10,11,22,24,27c38,14,109,87,100,102c-14,22-22,112-12,131c7,14,5,22-9,33c-13,11-14,17-5,20c6,3,12,10,12,16
		c0,13,66,114,80,123c10,6-13,79-31,102c-6,7-18,13-27,13c-35,0-196-125-361-279c-97-91-205-191-241-221c-35-30-89-78-120-106
		c-136-127-358-302-428-338c-61-32-68-23-75,89c-9,162,34,648,73,805c48,195,94,358,110,390c11,22,20,52,20,69c0,16,6,31,15,35
		c8,3,15,13,15,22s12,39,26,68c14,28,38,83,53,121c15,39,54,113,88,165c78,124,104,201,71,212c-8,3-12,19-10,41c4,44-8,47-30,9
		c-15-26-16-31-2-58c20-39,11-82-27-123c-17-19-35-46-41-60c-10-23-12-24-16-7c-2,11,9,43,24,72c16,29,25,56,21,61
		c-15,14-42-14-79-82c-34-65-68-105-89-105c-17,0,4,55,32,85c16,17,29,36,29,41c0,24,32,72,50,77s19,9,9,33c-9,26-7,31,20,54
		c17,14,31,32,31,42c0,11,6,15,20,11c15-4,20,0,20,14c0,11,9,32,20,46c26,32,25,36-5,47c-33,13-32,30,3,30c41,0,54,13,47,43
		c-5,19-1,35,15,57c25,36,8,41-27,8c-13-12-26-18-30-15c-8,9,83,97,101,97c7,0,21,19,31,43c20,51,52,87,71,80c10-4,12,0,8,11
		c-8,20,47,76,74,76c11,0,35,17,53,37c21,25,34,33,37,24c3-8,8-6,16,9c14,29,150,100,190,100c43,0,73-23,81-63c4-17,21-47,38-66
		c28-33,29-38,23-100c-7-73-45-241-78-341c-52-158-419-878-535-1049c-53-77-55-104-10-127c17-9,57-34,87-55c102-70,137-66,203,26
		c36,50,59,71,93,85c39,17,44,23,39,43c-5,18,4,36,34,75c23,28,54,61,71,73c18,14,32,35,36,55c6,33,29,62,40,51c3-3-7-31-21-62
		c-15-31-24-59-21-62s9,3,13,13s15,28,26,39c42,44,84,155,59,155c-4,0-13-9-20-20c-24-39-61-13-77,52c-6,24-3,29,19,38
		c19,7,35,28,55,72c15,35,43,88,62,118c42,66,59,104,59,130s27,50,57,50c22,0,25,3,21,30c-3,18,1,35,9,41c7,6,13,19,13,28
		c0,10,7,26,15,37c13,17,14,17,15,2c0-10,5-18,10-18c13,0,32,48,25,60c-3,5-1,11,4,14c14,9,4,140-11,145c-21,7-28,23-28,74
		c0,26-7,58-15,71c-15,22-14,26,11,55c27,32,28,52,9,131c-5,21-5,22,5,7c6-9,15-15,21-12c21,13,6,49-38,97c-80,84-263,261-296,285
		C8838.6,15998.1,8730.6,16013.1,8637.6,15988.1z M8417.6,15588.1c0-21-36-61-43-49c-4,6,3,22,14,37
		C8411.6,15606.1,8417.6,15608.1,8417.6,15588.1z M8287.6,15426.1c0-4-25-32-55-62c-36-36-55-50-55-39c0,19,81,107,98,107
		C8282.6,15432.1,8287.6,15429.1,8287.6,15426.1z M8222.6,15242.1c4-6-5-10-19-10c-14,0-26,5-26,10c0,6,9,10,19,10
		C8207.6,15252.1,8219.6,15248.1,8222.6,15242.1z M7952.6,14960.1c-10-31-25-47-25-26c0,24,11,48,22,48
		C7954.6,14982.1,7955.6,14972.1,7952.6,14960.1z M8057.6,14653.1c0-6-4-13-10-16c-5-3-10,1-10,9c0,9,5,16,10,16
		C8053.6,14662.1,8057.6,14658.1,8057.6,14653.1z M7943.6,14597.1c1-16-3-25-13-25c-9,0-22-8-29-17c-13-17-13-17-14,2
		c0,25,27,65,43,65C7937.6,14622.1,7943.6,14611.1,7943.6,14597.1z M8017.6,14571.1c0-5-4-9-10-9c-5,0-10,7-10,16c0,8,5,12,10,9
		C8013.6,14584.1,8017.6,14577.1,8017.6,14571.1z M7951.6,14427.1c-6-16-24-21-24-7c0,11,11,22,21,22
		C7953.6,14442.1,7954.6,14435.1,7951.6,14427.1z M7907.6,14270.1c0-19-18-43-25-36c-9,9,4,48,16,48
		C7903.6,14282.1,7907.6,14276.1,7907.6,14270.1z M7781.6,13908.1c-3-9-10-16-15-16c-6,0-5,9,1,21
		C7780.6,13937.1,7791.6,13933.1,7781.6,13908.1z M8896.6,13629.1c6-8,8-17,4-20c-11-12-21-7-26,13
		C8868.6,13645.1,8879.6,13648.1,8896.6,13629.1z M8813.6,13507.1c-7-18-26-20-26-2s24,41,28,27
		C8817.6,13526.1,8816.6,13515.1,8813.6,13507.1z M8932.6,13492.1c-3-5-12-10-18-10c-7,0-6,4,3,10
		C8936.6,13504.1,8940.6,13504.1,8932.6,13492.1z M8787.6,13294.1c0-5-9-17-19-26c-14-13-21-14-27-5c-4,7,1,18,11,26
		C8773.6,13304.1,8787.6,13306.1,8787.6,13294.1z M8683.6,13197.1c-16-25-36-33-36-16c0,4,10,21,22,36
		C8695.6,13250.1,8707.6,13233.1,8683.6,13197.1z"/>
	<path d="M5147.6,15704.1c-17-17-32-45-36-68c-11-62-31-91-82-120c-26-15-64-37-84-50c-21-13-49-24-63-24s-25-4-25-8
		c0-13-121-87-182-112c-32-13-91-48-130-79c-143-108-211-151-239-151c-15,0-30,4-33,9c-3,4-16,7-28,5c-13-2-44-6-70-9
		c-30-4-48-11-48-20c0-7-7-16-16-19c-23-9-72-7-78,3c-3,4-52-2-108-15c-166-37-147-26,37,22c94,24,187,44,207,44s43,6,50,13
		c7,8,49,17,93,21c89,8,118,22,89,43c-36,26-355,8-402-23c-13-9-33-13-44-11c-11,3-53-7-93-22c-40-16-93-31-118-35
		c-76-12-392-109-411-127c-6-5-20-9-32-9s-43-9-69-20c-31-13-51-17-63-10c-9,5-39,19-67,32c-27,13-57,30-66,39c-20,20-78,34-89,23
		c-17-19-104-230-184-449c-104-284-155-439-256-770c-15-49-37-114-49-143c-11-29-21-64-21-78c0-13-7-35-14-47c-8-12-19-47-25-77
		c-5-30-19-90-30-134c-12-43-21-90-21-103s-12-39-26-58c-21-27-29-58-45-167c-11-73-23-199-26-280c-5-125-3-155,11-193
		c10-25,22-45,26-45c5,0,8-12,7-26c-4-49,75-82,203-86c28-1,39-7,55-32c11-17,29-32,41-34c11-2,78,24,149,56c72,33,171,72,220,87
		c167,50,299,97,309,110c6,7,29,16,51,20s45,11,51,16s39,13,74,17c44,7,67,15,79,29c9,12,26,24,39,28c12,3,22,13,22,21s6,14,13,14
		c6,0,4,5-6,11c-30,18-4,45,55,57c29,5,55,6,58,2c3-5,21,1,40,13l35,22l-38,3c-49,4-44,24,9,36c62,13,66,15,58,27c-4,7-20,9-39,6
		c-25-4-35-1-39,10c-4,9-5,17-4,17c39,23,65,42,71,52c4,7,14,11,22,8c11-5,15,2,17,22c2,50,3,54,11,54c32,0,37-1,32-9
		c-7-12,63-2,85,11c11,7,9,8-7,5c-27-6-31,8-5,16c9,3,46,18,82,32c36,15,98,41,139,58c101,41,73,51-59,21c-58-13-114-23-125-23
		c-17,1-17,2-2,6c9,2,17,9,17,15c0,11-6,10-145-11c-81-13-272-56-349-80c-35-11-117-29-182-41c-171-30-381-85-484-126
		c-89-36-128-40-121-13c2,8,7,48,13,89c5,41,20,116,33,165c13,50,26,102,29,117c7,33,54,59,224,128c62,26,121,53,130,61
		c10,9,65,30,122,48c58,18,151,48,208,67c56,19,112,34,124,34s36,12,55,26c21,16,42,24,54,21c10-3,19-2,19,2c0,7,112,66,143,75
		c9,3,17,15,17,27c0,17-4,20-24,15c-14-3-27-2-31,3c-3,6-21,3-42-6c-26-10-38-12-41-4c-5,16-43,14-62-4c-18-16-80-11-80,6
		c0,19,41,48,77,54c21,4,58,15,83,26l45,20l-40-6c-31-5-37-4-28,5c6,7,9,18,7,25c-4,8,20,19,73,34c43,11,62,18,43,16
		c-37-6-32,8,7,19c18,6,24,2,29-19c6-26,7-26,74-19c62,6,69,5,79-14c14-26,48-37,66-22c31,26,31,138,0,126c-8-3-15-1-15,4
		c0,6,5,10,11,10s8,7,5,16c-9,24,4,64,23,64c9,0,25,7,35,15c11,8,28,15,38,15c33,0,88,33,88,53c0,15-5,18-22,13c-36-10-118-15-123-7
		c-9,15,7,49,25,54c19,5,86,128,109,199c11,35,15,37,58,40c44,3,47,5,60,43c9,26,37,62,78,102c63,60,81,93,49,93c-12,0-14,9-12,37
		c2,30,10,42,38,61c19,13,41,34,47,47c13,24,46,41,73,37c9-2,24,12,34,29l19,32l18-24l18-24l10,28c17,44,61,29,61-21
		c0-21-3-23-29-17c-30,6-71-8-71-25c0-6,18-10,39-10c24,0,48-8,62-19l24-20l-21-43c-22-47-95-265-94-285c0-7-11-38-25-69
		s-28-75-31-98c-4-23-11-47-16-53c-6-7-8-20-4-29c3-9-5-29-19-48c-14-18-22-36-19-39c4-3-1-22-10-41s-16-45-16-59s-4-29-10-32
		c-5-3-10-15-10-26s-9-37-20-57c-10-20-22-49-25-64c-6-32-56-67-126-91c-24-8-90-34-146-56c-55-23-105-41-110-41c-16,0-42-35-35-46
		c4-6,21-18,37-27c17-8,43-29,59-46c17-17,40-31,52-31c34,0,39-19,9-30c-18-7-31-6-45,2c-15,10-25,7-59-16c-22-15-44-25-49-22
		s-30-6-57-19c-27-14-61-25-75-25c-39,0-53-21-34-48c8-12,19-20,24-17s18,0,29-7c16-9,25-9,43,0c19,11,31,10,68-3c24-9,56-13,71-10
		c17,4,30,1,38-9c9-10,22-13,41-9c19,3,34,0,45-10c8-9,22-14,29-11s21-3,30-12c19-18,16-46-9-97c-8-15-17-60-21-100
		c-3-40-20-119-37-177c-31-102-31-110-30-297c1-222,8-248,83-298c39-26,54-30,115-30c99,0,125,9,125,43c0,15,14,47,30,72
		s30,53,30,63s7,20,15,23c8,4,15,16,15,28c1,44,57,137,90,148c6,2,13,26,14,53c2,28,7,58,11,68c5,11,1,25-10,37s-15,28-12,42
		c34,135,53,198,60,198c16,0,46,44,47,67c1,83,103,188,285,294c58,34,105,66,105,73c0,11,77,66,122,86c13,6,36,31,51,56
		c21,35,32,44,54,44c16,0,35,4,43,9c25,17,33-1,9-20c-23-18-23-19-3-19c25,0,74,36,74,55c0,7,4,15,9,17c4,2,21,24,37,50
		c16,25,64,82,107,127c61,64,77,87,77,110c0,66,48,114,76,76c7-10,16-23,19-29c3-7,7-6,11,4c4,8,40,47,80,87c68,66,74,75,74,112
		c0,40,1,41,33,41c38,0,57,15,57,45c0,12,11,31,25,43s25,28,25,36c0,7,9,25,20,39s20,37,20,51c0,16,6,26,15,26c8,0,24,18,35,40
		c18,35,19,41,5,46c-23,9-18,19,20,40c40,21,41,22,18,40c-17,12-15,16,22,48c22,19,40,40,40,47c0,8,7,14,15,14s18,5,22,10
		c12,16,9,114-3,137c-10,18-9,20,5,15c47-18,33,96-23,195c-43,74-178,224-302,333c-156,138-255,176-459,174c-77-1-242-29-280-48
		c-8-4-50-4-93-1c-57,5-83,12-100,27c-25,24-61,43-77,43C5181.6,15732.1,5163.6,15719.1,5147.6,15704.1z M6140.6,15240.1
		c-1-59-8-82-58-189c-55-120-141-265-227-383c-24-33-55-81-70-107c-18-31-51-64-93-94c-36-26-79-67-95-91c-17-24-37-47-44-51
		c-8-4-40-33-73-63c-32-30-71-65-86-76c-15-12-27-28-27-36c0-7-16-22-35-32s-45-35-58-55c-16-24-58-56-122-94c-53-32-100-56-103-53
		s0,30,6,58c9,43,10,99,3,161c-1,4-8,7-17,7s-14,6-12,12c3,7,13,13,22,13c12,0,22,12,30,35c8,24,17,34,28,32c27-4,30,16,8,46
		c-29,39-25,96,8,100c27,4,38,23,47,84c6,39,16,54,62,99c45,43,52,54,39,61c-23,13-20,21,22,75c41,51,72,119,72,156c0,12-9,28-20,35
		s-20,23-20,37c0,18,5,25,20,25c11,0,20,6,20,13c0,6,3,23,7,36c5,20,3,23-10,18c-33-13-18,40,28,95c43,53,46,54,91,52
		c38-3,53,2,76,21c16,13,45,27,66,30c20,4,69,16,107,27c100,30,201,48,270,49c33,1,71,5,85,9
		C6137.6,15318.1,6142.6,15312.1,6140.6,15240.1z M4087.6,15142.1c0-5-4-10-10-10c-5,0-10,5-10,10c0,6,5,10,10,10
		C4083.6,15152.1,4087.6,15148.1,4087.6,15142.1z M4263.6,15043.1c-17-18-26-36-23-45c10-26-114-90-203-106c-41-7-82-15-90-17
		s1,5,20,16s41,20,49,21c7,0,26,11,43,25c16,14,38,25,48,25c34,0,92,41,87,61c-4,15,2,20,29,25c19,3,37,10,40,15s10,9,16,9
		C4286.6,15072.1,4278.6,15059.1,4263.6,15043.1z M3782.6,14840.1c14,0,10-5-15-18c-44-24-50-24-50-2c0,25,11,34,29,26
		C3755.6,14842.1,3771.6,14840.1,3782.6,14840.1z M3987.6,14703.1c0-5-12-23-26-41c-15-17-27-43-28-58s-14-40-29-56
		c-29-31-35-56-14-56c8,0,7-4-3-10c-13-9-13-11,0-20c9-6,11-10,3-10c-34,0-68-158-54-246c5-32,7-61,5-63s-20-5-41-7
		c-114-9-527-123-718-197c-49-20-91-34-93-32c-3,3,101,314,145,433c9,23,28,53,44,66c78,66,369,182,700,280
		C3972.6,14714.1,3987.6,14716.1,3987.6,14703.1z M2758.6,14341.1c-63-185-73-210-78-206c-4,5,23,91,77,240
		C2804.6,14503.1,2804.6,14476.1,2758.6,14341.1z M2965.6,14330.1c1-37-4-58-18-76c-11-13-25-43-31-66c-6-22-17-49-25-60
		c-13-20-14-19-14,9c0,17,11,47,25,67s27,56,29,80c4,36,23,98,31,98C2963.6,14382.1,2964.6,14359.1,2965.6,14330.1z M2818.6,14109.1
		c-10-9-11-8-5,6c3,10,9,15,12,12S2825.6,14116.1,2818.6,14109.1z M2758.6,14049.1c-13-13-15,11-4,40c7,16,8,15,11-6
		C2767.6,14070.1,2764.6,14055.1,2758.6,14049.1z M2827.6,13928.1c-15-68-27-99-40-106c-27-14-30-13-30,13c-1,21-2,20-16-5
		c-8-16-20-28-27-28c-20,0-12,48,17,104c14,27,26,56,26,64c0,9,3,12,8,8c4-4,7-24,7-43c0-20,6-38,13-40c8-3,12,9,12,40
		c0,30,7,53,21,71c12,15,23,25,26,22C2847.6,14026.1,2839.6,13980.1,2827.6,13928.1z M2629.6,13935.1c-12-32-37-112-57-178
		c-19-66-42-141-50-166c-8-26-15-59-15-73s-5-34-10-44c-6-9-23-68-39-130c-15-62-31-116-35-120c-9-8-6,5,41,193
		c45,182,95,359,132,465c38,110,42,122,49,116C2647.6,13995.1,2640.6,13967.1,2629.6,13935.1z M2729.6,13970.1c-7-7-12-8-12-2
		c0,14,12,26,19,19C2738.6,13984.1,2735.6,13976.1,2729.6,13970.1z M2627.6,13457.1c0-8-4-15-10-15c-5,0-10,7-10,15s5,15,10,15
		C2623.6,13472.1,2627.6,13465.1,2627.6,13457.1z M2686.6,13455.1c0-5-7-24-14-43l-13-35l-1,43c-1,31,3,42,14,42
		C2680.6,13462.1,2687.6,13459.1,2686.6,13455.1z M2637.6,13297.1l-20-60l5,48c3,26,10,58,17,70
		C2659.6,13392.1,2658.6,13360.1,2637.6,13297.1z M3953.6,13137.1c-8-8-17-15-20-15s-6,7-6,15c0,9,9,15,21,15
		C3966.6,13152.1,3967.6,13150.1,3953.6,13137.1z M2538.6,13090.1c-11-31-29-34-24-3c3,14,11,25,19,25
		C2543.6,13112.1,2544.6,13106.1,2538.6,13090.1z M2520.6,12985.1c3-15,1-35-4-44c-4-9-11-46-15-83c-7-68-24-92-24-33
		c0,49,22,187,31,187C2511.6,13012.1,2517.6,13000.1,2520.6,12985.1z M2567.6,12897.1c-13-68-30-109-30-69c0,15,16,107,31,182
		c1,4,4-4,6-18C2577.6,12978.1,2573.6,12936.1,2567.6,12897.1z M3782.6,12982.1c-3-5-10-10-16-10c-5,0-9,5-9,10c0,6,7,10,16,10
		C3781.6,12992.1,3785.6,12988.1,3782.6,12982.1z M2374.6,12940.1c-3-7-5-2-5,12s2,19,5,13
		C2376.6,12958.1,2376.6,12946.1,2374.6,12940.1z M2361.6,12831.1c-4-46-9-78-12-71c-5,16,8,165,14,159
		C2366.6,12917.1,2365.6,12877.1,2361.6,12831.1z M3707.6,12862.1c-20-13-40-13-40,0c0,6,12,10,28,10
		C3716.6,12872.1,3719.6,12870.1,3707.6,12862.1z M3557.6,12728.1c0-2,3-11,6-20c5-12,0-16-18-16c-31,0-41,10-27,27
		C3529.6,12731.1,3557.6,12738.1,3557.6,12728.1z M2374.6,12520.1c6-49,5-52-10-39c-12,10-17,29-17,70
		C2348.6,12620.1,2365.6,12600.1,2374.6,12520.1z M2460.6,12470.1c-3-15-9-25-14-22c-11,6-12,48-2,58
		C2456.6,12518.1,2466.6,12497.1,2460.6,12470.1z"/>
	<path d="M9281.6,15490.1c4-18,9-50,13-70c3-21,9-38,14-38c13,0,11,97-1,121C9290.6,15534.1,9274.6,15526.1,9281.6,15490.1z"/>
	<path d="M7102.6,15371.1c-71-3-163-7-202-8l-73-1v-71c0-80-25-199-76-364c-50-162-134-485-134-514c0-14-16-86-35-158
		c-19-73-51-193-70-265c-19-73-40-162-45-198c-6-36-22-100-36-143c-15-48-25-105-25-145c-1-37-5-72-11-79c-5-6-8-39-6-74
		c3-60,4-62,30-63c43-2,48-14,35-91c-9-48-20-78-35-93c-23-23-28-43-14-56c4-4,7-33,7-63c0-70,18-79,35-18c7,25,17,48,21,51
		c16,9,9-56-7-82c-16-23-16-30-1-81c12-43,13-62,4-80c-8-19-8-26,1-32c9-5,11-21,6-48c-5-32-3-41,10-46c14-6,12-12-13-40
		c-33-35-221-288-300-402c-75-109-235-408-286-535c-104-257-173-480-194-620c-5-30-16-82-24-115c-9-33-26-150-38-260
		c-35-326-19-568,48-705c37-77,148-183,253-244c47-27,124-73,171-102c98-61,155-84,208-84c48,0,132,25,201,60c70,35,298,203,368,269
		c29,28,57,51,61,51s28,27,54,59c29,38,67,72,104,93c55,32,58,37,61,76c2,25-1,42-8,42c-5,0-37-25-70-55s-62-55-66-55
		c-3,0,16,27,42,60c44,56,51,73,57,148c2,25,16,29,36,10c10-11,11-10,6,4c-5,13,0,20,18,27c14,5,44,28,67,50c41,39,42,42,30,71
		c-8,19-11,53-7,90c3,33,1,58-3,55c-18-11-22,19-5,32c11,7,16,13,12,13c-8,0,38,74,65,106c17,19,17,23,2,67c-9,26-24,52-35,57
		c-31,17-182-95-384-285c-99-93-207-192-240-220c-32-27-73-63-90-78c-131-123-393-329-462-366c-44-23-50-16-58,72c-4,45-7,127-6,182
		c4,202,52,592,86,695c8,25,28,103,45,174s40,146,50,167c11,21,20,52,20,68s5,31,10,33c11,3,62,114,105,224c12,34,49,101,80,150
		c32,49,64,103,71,121c16,38,18,103,4,103c-5,0-10,19-10,43v42l-20-25c-24-30-25-58-5-87c14-19,14-26,1-55c-7-18-28-48-45-67
		s-31-41-31-48s-4-13-10-13c-18,0-11,34,15,72c25,37,33,78,16,78c-13,0-57-58-70-93c-6-16-15-26-20-23c-5,4-7-2-4-13
		c3-13-6-27-31-46c-34-26-63-28-39-4c6,6,9,17,7,23c-3,7,9,25,26,41c16,16,30,34,30,41c0,22,34,73,53,78c15,4,17,11,12,39
		c-6,29-3,36,19,51c14,9,26,25,26,36c0,14,6,19,22,17c17-1,23,4,24,21c1,12,9,31,18,41c23,25,20,38-10,45c-29,8-28,30,2,32
		c57,3,57,3,50,35c-4,23,0,39,15,60c23,33,9,40-29,13c-12-8-22-11-22-6c0,13,72,76,94,82c11,3,25,22,33,45c16,47,52,88,71,80
		c10-3,12,0,9,10c-9,21,38,72,74,80c16,4,41,22,57,41c23,29,28,31,34,16s8-14,14,6c10,33,137,102,189,102c51,0,85-23,85-58
		c1-15,14-42,30-62c39-44,39-92,4-249c-39-174-74-269-182-493c-107-221-343-659-403-749c-54-80-58-103-22-125c15-9,54-34,85-55
		c114-78,149-76,207,9c47,69,70,91,107,101c22,6,29,14,29,32c1,37,28,79,89,137c31,30,56,61,56,71c0,22,26,58,35,49c7-6-6-42-37-100
		c-5-12-5-18,2-18c5,0,10,6,10,13c0,6,11,22,24,35c32,30,66,101,66,138v29l-25-30l-25-30l-25,28c-34,38-33,82,1,99c18,9,34,32,50,72
		c13,33,30,67,38,75c23,27,76,133,76,153c0,35,19,58,49,58c29,0,47,22,35,42c-3,5,1,24,9,41c9,18,19,41,23,52c6,18,8,18,11,3
		c3-10,8-18,13-18c21,0,33,50,35,132c1,76-2,88-16,88c-18,0-29,37-29,101c0,21-4,41-10,44c-17,10-11,41,11,61c17,16,20,27,16,64
		c-3,25-8,56-12,70c-5,21-5,22,5,8c15-25,30-22,30,5c0,29-68,106-235,267c-112,107-158,132-255,138c-94,5-169-16-281-82
		c-40-24-76-42-78-40c-2,1,2,17,8,35s11,43,11,56s9,48,19,79c11,30,18,61,15,69c-3,7,4,31,15,53s25,68,31,103c5,35,21,100,35,144
		s25,93,25,108c0,16,4,36,9,45c16,30,65,255,66,302c2,51,12,80,34,97c13,9,14,16,3,45c-15,44-15,49,3,42c17-7,35,32,35,75
		c0,15,7,36,15,47c8,10,15,34,15,53s8,62,19,95c10,34,23,79,29,101c5,22,21,74,35,115c52,158,78,251,81,292c1,24,12,63,23,88
		s26,70,32,100c7,30,32,117,57,192c24,76,44,148,44,161c0,14-9,36-21,51c-16,20-28,26-57,24
		C7249.6,15379.1,7174.6,15375.1,7102.6,15371.1z M6937.6,13932.1c0-5-5-10-11-10c-5,0-7,5-4,10c3,6,8,10,11,10
		C6935.6,13942.1,6937.6,13938.1,6937.6,13932.1z M6527.6,13680.1c0-5-4-8-10-8c-5,0-10,10-10,23c0,18,2,19,10,7
		C6522.6,13694.1,6527.6,13684.1,6527.6,13680.1z M6497.6,13658.1c0-3-4-8-10-11c-5-3-10-1-10,4c0,6,5,11,10,11
		C6493.6,13662.1,6497.6,13660.1,6497.6,13658.1z M6557.6,13422.1c0-5-4-10-10-10c-5,0-10,5-10,10c0,6,5,10,10,10
		C6553.6,13432.1,6557.6,13428.1,6557.6,13422.1z M6557.6,12777.1c0-8-7-15-15-15c-26,0-18,20,13,29
		C6556.6,12792.1,6557.6,12785.1,6557.6,12777.1z M6702.6,12503.1c-17-34-35-48-35-29c0,18,28,58,41,58
		C6713.6,12532.1,6711.6,12519.1,6702.6,12503.1z M6577.6,12356.1c0-9-93-103-102-104c-18,0-6,23,33,65
		C6544.6,12356.1,6577.6,12375.1,6577.6,12356.1z M6513.6,12175.1c-10-10-46-11-46-1c0,4,12,8,27,8
		C6508.6,12182.1,6517.6,12179.1,6513.6,12175.1z M6243.6,11887.1c-4-14-11-25-16-25c-13,0-13,16,1,42
		S6251.6,11920.1,6243.6,11887.1z M6344.6,11575.1c-15-16-17-16-17-1c0,9,6,18,13,21C6360.6,11602.1,6362.6,11593.1,6344.6,11575.1z
		 M6239.6,11532.1c4-24,1-30-10-25c-8,3-24-3-35-12c-19-18-19-17-12,7c5,20,39,60,50,60
		C6233.6,11562.1,6237.6,11548.1,6239.6,11532.1z M6307.6,11513.1c0-6-4-13-10-16c-5-3-10,1-10,9c0,9,5,16,10,16
		C6303.6,11522.1,6307.6,11518.1,6307.6,11513.1z M6243.6,11357.1c-3-9-11-13-16-10c-8,5-7,11,1,21
		C6242.6,11386.1,6252.6,11379.1,6243.6,11357.1z M6197.6,11200.1c0-7-4-19-9-27c-11-17-23,1-15,23
		C6180.6,11215.1,6197.6,11217.1,6197.6,11200.1z M6042.6,10902.1c3-5,1-10-4-10c-6,0-11,5-11,10c0,6,2,10,4,10
		C6034.6,10912.1,6039.6,10908.1,6042.6,10902.1z M6068.6,10829.1c-8-8-11-7-11,4c0,9,3,19,7,23s9,2,11-4
		C6078.6,10845.1,6074.6,10835.1,6068.6,10829.1z M7191.6,10540.1c-9-14-24,2-24,25c1,21,1,21,15,3
		C7190.6,10558.1,7194.6,10545.1,7191.6,10540.1z M7117.6,10466.1c0-13-21-44-30-44c-14,0-12,24,2,38
		C7102.6,10473.1,7117.6,10476.1,7117.6,10466.1z M7077.6,10223.1c0-15-28-33-40-26c-8,5-8,11,1,21
		C7051.6,10233.1,7077.6,10237.1,7077.6,10223.1z M6980.6,10142.1c-9-16-23-30-31-30c-14,0-9,13,16,43
		C6989.6,10183.1,7000.6,10175.1,6980.6,10142.1z"/>
	<path d="M9003.6,14363.1c-4-7-5-15-2-18c9-9,19,4,14,18C9011.6,14374.1,9009.6,14374.1,9003.6,14363.1z"/>
	<path d="M8767.6,14156.1c0-17,22-14,28,4c2,7-3,12-12,12S8767.6,14165.1,8767.6,14156.1z"/>
	<path d="M8859.6,13329.1c-23-24-29-47-12-47c13,0,43,47,38,60C8883.6,13348.1,8872.6,13343.1,8859.6,13329.1z"/>
	<path d="M11129.6,13254.1c-14-19-34-32-56-36c-19-4-39-13-45-20c-6-8-25-16-41-20c-17-3-30-11-30-17s7-9,15-5c8,3,15,2,15-3
		c0-9-90-51-109-51c-5,0-11,5-13,11c-2,7-43-26-90-72c-47-47-94-85-104-85c-11-1-27-4-36-9c-13-5-18-3-18,9c0,20-14,20-48-1
		c-45-28-72-56-72-74c0-9-7-19-15-23c-8-3-15-14-15-24c0-20-59-82-78-82c-7,0-12-4-12-9s-11-19-25-32c-13-13-25-32-25-41
		c0-10-7-18-15-18s-30-13-48-30c-44-39-93-40-55-2c9,9,9,12-1,12c-19,0-141-109-141-125c0-7,6-16,13-19c6-3,0-3-15,0
		c-24,5-29,1-42-30c-8-20-21-36-29-36c-15,0-68-63-66-77c4-22-3-33-20-33c-11,0-23-4-26-10c-3-5,1-10,9-10c26,0,18-34-13-64
		c-19-18-36-26-48-22c-13,4-30-9-65-54c-27-33-48-65-48-72s-18-35-40-63c-23-29-40-61-40-76c0-20-7-30-29-39c-16-6-36-19-44-28
		c-26-29-67-119-67-146c0-14-4-26-9-26s-11-18-15-41c-4-22-10-39-14-37c-60,31-100,41-192,48c-58,3-113,3-122-2c-9-4-29-8-43-8
		c-15,0-54-7-88-15c-276-69-459-119-499-135c-26-11-55-20-64-20c-10,0-27-9-39-20c-11-11-50-26-85-33c-36-8-73-18-82-22
		c-16-6-15-2,2,49c11,30,20,70,20,87s9,42,20,56c11,15,20,41,20,60c0,21,9,46,23,63c12,16,30,41,41,56s51,41,95,61
		c42,19,126,60,186,90c122,61,317,134,410,153c33,7,86,23,119,37c71,29,288,65,407,67c91,2,119,13,119,47c0,14-7,19-25,19
		c-15,0-25,6-25,14c0,7-7,20-16,27c-14,11-18,10-33-10c-14-18-25-22-60-19c-41,3-41,4-26,23c11,14,18,16,21,8c9-22,44-15,44,8
		c0,19,4,20,34,15c38-7,66,0,66,19c0,6,9,20,20,30c59,53-16,221-123,276c-114,59-389,37-647-51c-47-16-124-40-171-54
		c-47-13-101-34-120-45c-19-12-42-21-52-21c-30,0-182-63-361-149c-95-46-181-81-195-80c-44,2-51,0-51-19c0-31-34-55-320-227
		c-172-103-200-150-143-236c22-33,31-39,50-34c32,8,118-80,128-131c7-39,27-53,50-34c8,7,15,10,15,6c0-17-53-204-71-248
		c-26-68-89-312-89-349c0-16-7-46-15-66c-8-19-15-48-15-64c0-15-4-31-10-34c-5-3-10-18-10-32c0-15-4-40-9-57s-16-65-25-106
		c-14-68-23-110-56-287c-6-29-15-77-21-105c-6-29-12-118-12-198c-1-132,1-150,22-198c27-60,76-106,159-150c95-49,114-50,143-2
		c26,44-6,80-63,71c-4,0-15,11-25,25c-15,23-15,28-1,51c12,20,13,36,6,75c-5,27-8,68-6,91c3,39,5,42,35,45c26,3,31,0,27-15
		c-4-14,1-18,21-19c41-3,55-12,55-37c0-13,13-36,29-51s37-47,47-72c21-51,46-57,99-24c17,11,62,31,99,45c36,14,103,44,149,67
		c45,23,159,72,252,109c170,67,252,117,241,145c-3,7-1,16,4,19c6,4,10,13,10,21c0,11-9,13-39,8c-56-9-57,8-1,49c28,21,50,45,50,56
		c0,10,3,21,7,25s6,27,4,52c-2,39,2,51,25,75c15,16,35,29,44,29c19,0,43,25,54,53c3,11,15,21,25,24c11,3,21,17,25,33
		c3,16,15,38,27,49c20,19,21,23,9,46c-16,30-21,30-85,6c-27-10-90-26-140-36c-140-26-528-165-745-268c-137-64-148-68-155-57
		c-10,17-25,11-25-9c0-10-9-21-21-24c-16-4-19-2-14,11c3,9,9,35,12,59s10,43,15,43c20,0,57,48,51,68c-2,11,0,23,6,26
		c6,4,11,21,11,37c0,41,18,72,37,65c8-4,28,5,45,19c24,20,33,23,44,14c11-9,15-7,22,10c4,11,36,35,72,54s119,62,185,96
		c131,69,179,88,390,161c77,26,165,58,195,70s84,26,119,31c67,10,137,42,155,71c14,23-20,61-48,54c-45-12-64,46-21,66
		c21,9,28,8,45-7c19-17,20-17,26,0c4,10,2,26-5,37s-11,21-9,22c69,39,164,66,236,66c48,0,62,3,62,15c0,8-8,15-17,15c-15,1-14,4,7,21
		l24,20l29-61c31-65,72-102,172-156c28-15,106-64,175-109c178-117,184-119,370-121c127-1,163,2,201,17c43,16,113,22,246,20
		c63-1,73-18,73-114c0-45-6-104-14-132c-17-65-66-173-104-227c-16-24-39-62-51-85c-12-24-28-43-36-43s-15-3-15-7c0-5-38-41-85-81
		c-49-42-85-81-85-92s-25-35-69-64c-38-25-72-50-76-56c-3-6-22-17-41-25c-18-7-51-28-73-45c-32-26-163-92-259-131
		c-34-13-38,11-13,73c11,29,34,89,51,132c30,78,67,138,175,285c60,81,70,121,32,121c-13,0-28-5-35-12c-9-9-12-8-12,6c0,15-3,16-15,6
		c-8-6-18-9-24-6c-5,4-13-4-16-16c-8-24-63-88-77-88c-5,0-5,12-2,27c6,22,4,25-11,20c-12-5-16-3-12,7c3,8-1,20-10,27
		c-12,11-20,10-44-3c-37-22-37-14,1,29c31,35,36,48,21,57c-5,4-19-9-30-28c-12-18-28-39-36-46c-13-11-15-8-15,20c0,23,8,39,30,58
		c17,15,30,30,30,34c0,18-28,6-60-27c-22-23-36-31-41-24c-7,13-10,11-76-48c-20-18-39-33-43-33s-15-20-24-44s-25-51-36-61
		c-10-9-28-41-40-71c-23-56-29-61-47-43c-8,8-13,3-18-20c-4-17-12-34-19-38c-16-11-47-116-53-183c-7-73,15-121,74-161
		c48-33,202-107,300-144c34-13,75-34,92-46c42-31,176-37,302-15c123,23,337,126,483,234c137,102,348,314,418,422
		c145,222,181,347,143,493c-8,32-15,66-15,77c0,19-31,80-40,80c-3,0-31,25-63,55c-31,30-69,57-84,60c-68,14-125,38-293,125
		c-133,69-155,73-434,75c-145,1-266-3-288-9c-32-8-41-8-49,4c-33,53,106,364,247,550c193,254,352,433,498,559
		c186,160,285,237,368,285c46,27,107,64,135,82c45,29,93,44,93,30c0-20-87-170-106-183c-13-8-24-23-24-32s-21-36-46-61
		c-26-25-74-82-108-126c-151-201-362-438-403-455c-47-18-28-51,74-122c28-19,71-46,94-58c24-12,66-46,94-76c29-30,60-55,71-55
		c32-3,73,32,128,106c29,39,113,141,186,226c278,322,336,401,478,655c55,98,76,164,75,236c-1,63-26,94-125,153
		c-51,30-124,82-163,116c-86,76-160,113-235,118C11153.6,13284.1,11149.6,13283.1,11129.6,13254.1z M10307.6,12547.1
		c0-28-17-34-27-9c-3,9,0,20,8,25C10307.6,12575.1,10307.6,12575.1,10307.6,12547.1z M10167.6,12558.1c0-3-4-8-10-11c-5-3-10-1-10,4
		c0,6,5,11,10,11C10163.6,12562.1,10167.6,12560.1,10167.6,12558.1z M11127.6,12401.1c-7-11-14-19-16-16c-7,7,7,37,17,37
		C11134.6,12422.1,11133.6,12413.1,11127.6,12401.1z M9987.6,12363.1c0-12-20-25-27-18s6,27,18,27
		C9983.6,12372.1,9987.6,12368.1,9987.6,12363.1z M11092.6,12362.1c3-5-1-10-10-10s-13,5-10,10c3,6,8,10,10,10
		S11089.6,12368.1,11092.6,12362.1z M10319.6,12310.1c-7-7-12-8-12-2c0,14,12,26,19,19
		C10328.6,12324.1,10325.6,12316.1,10319.6,12310.1z M9187.6,12272.1c0-5-11-10-25-10s-25,5-25,10c0,6,11,10,25,10
		S9187.6,12278.1,9187.6,12272.1z M10066.6,12015.1c0-25-1-26-9-8c-12,27-12,35,0,35
		C10063.6,12042.1,10067.6,12030.1,10066.6,12015.1z M9701.6,11956.1c8-21,1-28-18-21c-9,4-13,13-10,22
		C9681.6,11977.1,9693.6,11976.1,9701.6,11956.1z M9637.6,11808.1c0-3-4-8-10-11c-5-3-10-1-10,4c0,6,5,11,10,11
		C9633.6,11812.1,9637.6,11810.1,9637.6,11808.1z M9317.6,11462.1c0-5-9-10-21-10c-11,0-17,5-14,10c3,6,13,10,21,10
		S9317.6,11468.1,9317.6,11462.1z M9637.6,10536.1c0-3-14-25-32-48c-17-22-33-43-35-45s-5-2-8,0c-9,10,24,83,41,90
		C9627.6,10543.1,9637.6,10543.1,9637.6,10536.1z M9806.6,10390.1c-9-16-9-23,0-26c12-4,15-32,3-32c-4,0-14,6-20,12
		c-10,10-15,10-22-2c-5-8-11-12-14-9c-7,7,42,79,55,79C9814.6,10412.1,9813.6,10403.1,9806.6,10390.1z"/>
	<path d="M5327.6,12594.1c0-5-16-27-34-49c-22-25-31-44-26-49c6-6-1-21-18-40c-15-16-40-49-55-73c-16-24-36-45-45-48
		c-24-7-61-68-55-91c5-22-16-69-54-119c-14-18-21-37-17-44s1-17-7-23s-24-29-36-51c-11-22-26-39-33-37c-19,4-40-18-40-44
		c0-12-4-26-10-29c-5-3-10-14-10-24s-8-26-19-35c-10-9-31-44-45-76c-15-33-31-62-36-65s-14-22-21-43c-7-20-20-48-30-62
		c-26-37-71-180-64-207c4-16-1-28-15-40c-11-10-20-22-20-29c0-6-9-19-21-30c-12-10-30-39-41-64s-27-58-35-73c-8-16-13-38-10-49
		s2-28-3-37s-12-33-15-55c-4-26-12-40-25-43c-11-3-24-20-30-38c-6-19-20-45-30-58c-11-14-24-56-31-98c-6-41-20-89-30-107
		c-11-18-19-40-19-49c0-17-68-83-85-83c-18,0-77-36-74-44c2-4-16-15-41-23c-25-9-57-24-72-34c-14-11-33-19-42-19s-19-7-22-15
		c-4-8-13-15-21-15s-55-22-104-50c-49-27-95-50-102-50c-8,0-22-9-32-20s-23-20-30-20s-30-13-51-28s-60-38-86-51c-67-32-78-48-49-72
		c25-21,20-39-11-39c-11,0-33-11-50-25c-16-14-35-25-42-25c-6,0-19-9-29-20c-9-11-23-17-31-14s-17,0-21-6c-5-8-11-8-22,1
		c-11,10-20,9-44-5c-29-17-39-10-17,12c20,20-2,14-48-13c-30-18-51-24-69-19c-15,4-25,2-25-4s-16-14-35-18c-19-3-38-10-41-15
		s-13-9-23-9s-53-18-95-40s-78-40-80-40s-6,17-8,38c-7,55,32,155,63,162c30,7,69,80,69,130c0,19,5,42,10,50c6,10,4,20-7,32
		c-13,15-14,20-3,33c17,20,17,90,0,110c-8,9-10,25-5,42c4,16,6,44,6,63c-1,25,5,39,21,52c20,15,21,20,11,37c-10,15-10,20,0,24
		c9,3,9,10-2,29c-7,15-10,35-6,48c5,17,2,23-15,27c-29,8-22,38,10,38c22,0,26,7,38,55c37,154,45,180,53,180c5,0,9-9,9-20
		c0-30,37-25,70,10c40,43,64,120,66,215c2,86,5,99,36,158c12,24,18,47,14,62c-5,19,0,28,19,41c20,13,24,23,23,61c0,31,6,53,21,73
		c11,16,21,36,21,45c0,8,9,15,19,15c26,0,37,18,15,27c-13,5-15,14-11,48c4,24,2,46-4,52c-8,8-3,23,16,52c20,32,30,41,45,36
		c13-4,22,0,29,14c13,23,15,78,3,85c-5,3-4,41,0,85c9,87-2,158-27,167c-8,3-12,11-9,18s-22,31-57,56c-34,24-73,56-87,72
		c-14,15-33,28-42,28s-36,13-60,29c-53,36-74,27-94-39c-8-25-32-88-55-140c-25-58-44-118-48-155c-3-33-12-65-20-70
		c-14-11-53-152-53-196c0-15-7-32-16-40c-10-8-14-22-11-38c4-17-10-62-36-126c-40-99-59-163-171-585c-32-118-68-249-81-290
		c-13-41-31-111-39-155s-24-107-35-139c-12-33-21-67-21-76c0-10-11-56-25-104c-14-47-27-100-30-118s-13-71-21-118
		c-32-176-45-421-24-460c16-29,85-65,185-95c50-15,113-35,140-44c107-37,109-38,155-26c139,37,513,222,580,287c15,14,65,52,111,83
		s109,74,139,95c40,29,65,39,92,40c43,0,93,21,160,67c25,17,77,48,116,67c44,22,71,42,75,55c9,36,29,25,21-11c-4-18-8-58-9-88
		c-3-91-4-93-19-87c-12,5-15-3-14-36c0-23-6-71-15-107c-22-90-30-182-18-200c7-10,29-15,74-16c35,0,69-4,75-8c6-3,18,4,26,16
		c9,12,16,18,16,13s7,0,15,11c13,17,14,17,15,2c0-20,20-25,20-5c0,6,6,1,13-13c13-26,42-33,65-16c9,7,16,5,21-3c5-7,19-11,32-9
		c18,2,25,11,31,43c4,22,12,63,18,90c5,28,30,151,55,275c55,275,91,422,108,432c6,4,18,8,25,8c6,0,12,5,12,11s-7,9-15,5
		c-8-3-15-1-15,3c0,11,25,21,50,21c10,0,21,7,24,16c6,16,5,15-54-4c-8-2-6,2,5,10s55,27,98,42c72,26,95,47,65,59c-9,4-5,12,12,26
		c30,25,26,26-30,6c-61-22-81-18-35,6c39,20,58,27,82,28c19,1,74,52,71,65c-4,17,59,79,67,66c3-5,13-10,21-10c11,0,13,6,9,20
		c-5,15-3,18,8,14c8-3,17,2,20,10c4,9,13,13,22,10c12-5,15-26,16-113c0-58,5-146,10-196c5-49,11-106,12-125c6-71,20-141,29-146
		c7-4,6-9-1-13c-7-5-7-18,0-44c11-42,23-47,34-14c7,21,8,20,12-8c4-22-1-34-17-47s-20-23-14-35c8-19,10-31,13-80c0-17,8-39,18-48
		c11-12,13-19,5-24s-6-36,9-116c11-61,24-130,28-155c9-52,32-141,67-256c13-44,24-86,24-93c0-6,6-24,14-39c7-15,16-38,19-52
		c6-25,4-26-76-44c-199-44-733-181-943-242c-126-36-337-97-469-134c-306-86-581-167-765-225c-219-69-263-82-415-119
		c-175-42-247-69-285-107c-35-36-38-69-10-109c38-53,189-130,261-133c33-1,45,5,79,38c40,39,40,39,69,22c24-14,31-15,40-3
		c6,7,28,16,49,19c20,3,44,6,52,8c9,3,16-5,18-18s8-23,13-23c6,0,8-8,4-19c-5-18-4-18,62,0c69,19,158,27,170,15c4-4-3-13-15-22
		c-26-18-72-66-72-75c0-8,88-1,164,12c55,10,179,51,476,159c63,23,205,62,315,86c110,25,283,67,385,94s255,66,340,86
		c85,19,187,44,225,54c39,11,123,29,189,40c118,21,176,41,176,61c0,6-9,13-20,16c-22,6-26,18-10,28c6,3,10,13,10,21c0,19-50,8-67-14
		c-15-18-20-15-25,13c-2,16,2,19,19,17c12-2,24,2,28,8c3,5-1,10-9,10c-9,0-16,9-16,20c0,23,17,25,89,8c63-14,95,3,111,62
		c13,49,22,50,38,6c7-18,21-41,32-51c20-18,21-18,41,3c11,12,21,22,22,22c108,18,163,32,176,44c14,15,13,16-5,16c-64,0-10,44,94,76
		c82,26,103,25,52-1l-32-16l34-25c23-18,41-24,60-20c37,7,44-9,22-49c-10-19-15-37-12-40c14-15,624,79,737,114c34,10,56,22,56,31
		c0,17-34,19-102,6c-43-8-63,7-23,17c42,11,19,27-37,27c-82,0-103-8-103-36c0-15,6-24,16-24c8,0,13-4,10-9s-22-5-42-1
		c-28,7-39,5-54-10c-10-10-41-21-71-24c-30-4-67-10-84-13l-30-5l19,21c24,26,14,38-22,25c-16-6-26-17-26-27c2-15-9-17-71-17
		c-64,0-74-3-88-22c-8-13-18-20-23-15c-4,4,2,17,14,30s22,28,22,35c0,14,77,37,190,57c47,8,86,15,88,15c9,0-12,46-25,57
		c-8,6-12,17-8,22c13,22,85,51,125,51c51,0,61-20,30-62c-12-16-19-32-16-35c14-14,68-2,103,21c42,29,74,36,54,12c-9-11-8-15,5-20
		c32-12,85,40,88,87c1,15,22,28,91,54c107,41,148,49,320,63c72,6,164,19,205,29c41,11,145,29,230,41c155,22,190,32,190,51
		c0,7,40,9,128,4c124-7,187,1,329,41c42,12,12,24-43,18c-30-4-54-4-54-1s27,14,60,23c38,11,68,26,80,41c18,23,20,24,45,7
		c27-18,111-24,158-11c38,10,35,35-5,39c-17,2-33,8-35,14c-5,16,26,23,137,30c90,7,97,9,139,43c43,35,47,36,148,42
		c106,6,128,14,117,42c-17,45-173,53-364,19c-152-27-191-31-485-42c-273-10-420-28-739-90c-241-47-344-64-496-85
		c-310-43-857-137-1222-212c-206-42-290-50-248-22c11,6,12,11,4,17c-7,4-12,27-11,52c0,25-3,79-8,120c-4,41-7,88-7,103
		c1,15-2,26-7,23c-4-3-8,9-8,27c-1,38-6,67-28,171c-14,64-15,80-4,86c9,6,10,12,2,22c-6,7-13,25-17,41c-3,15-13,27-21,27
		s-15,5-15,10c0,6,7,10,15,10c23,0,30,65,12,128c-22,79-37,159-37,190c0,27,18,86,33,110c5,7,4,12-2,12s-11,7-11,15s5,15,10,15
		c6,0,10,9,10,20s-4,20-10,20c-5,0-7-7-4-15c4-8,1-15-5-15s-11,19-11,45c0,33-4,45-15,45c-8,0-15,5-15,10c0,6,5,10,11,10
		c7,0,10,15,7,40c-2,22-1,40,3,40s10,17,13,38c8,49,8,52,0,83c-5,24-4,26,20,22c22-5,26-2,27,18c1,13,4,35,7,49c2,14,5,50,7,80
		c1,30,3,62,3,71c1,10,25,32,53,50l51,32l-8,71c-9,82-8,127,3,135c5,3,9,20,9,36c1,17,4,41,7,55c6,22,11,121,22,400
		c2,46,8,93,13,105c5,11,17,76,25,145c30,233,74,447,99,477c5,6,8,24,6,40c-3,24-8,28-47,35c-25,4-64,17-88,28c-23,11-49,20-56,20
		c-8,0-17,3-21,7c-10,10-136,42-168,42C5339.6,12602.1,5327.6,12598.1,5327.6,12594.1z M3283.6,11776.1c-3-9-6-18-6-20c0-3-4-3-10,1
		c-11,7-2,35,12,35C3285.6,11792.1,3286.6,11785.1,3283.6,11776.1z M5162.6,11410.1c-6-151-9-199-21-330c-5-45-2-78,6-98
		c11-26,10-33-5-50c-12-13-15-28-11-52c3-18,3-27,0-20c-3,6-13,12-21,12c-9,0-13,6-9,15c7,19,10,19-48-10c-27-14-57-25-66-25
		s-25-7-36-15c-10-8-35-15-56-15c-20,0-38-6-41-12c-2-7-8-10-13-5c-4,4,0,31,11,60c44,126,137,365,157,402c32,61,63,123,99,200
		c33,70,48,95,55,95C5166.6,11562.1,5165.6,11493.1,5162.6,11410.1z M5513.6,11486.1c-3-9-6-49-6-90c0-48-4-73-10-69
		c-19,12-8,175,12,175C5515.6,11502.1,5516.6,11495.1,5513.6,11486.1z M5422.6,11345.1c-10-91-15-92-15-5c0,45,4,72,11,72
		S5426.6,11390.1,5422.6,11345.1z M5499.6,11190.1c-2-27-7-48-11-48c-8,0-13,90-5,110C5493.6,11280.1,5504.6,11240.1,5499.6,11190.1
		z M3149.6,11170.1c-7-7-13-26-13-42c-1-19-3-24-6-13s-2,35,2,54c5,27,9,33,18,24C3158.6,11185.1,3158.6,11179.1,3149.6,11170.1z
		 M3102.6,11150.1c-3-24-11-56-18-72l-11-30l-7,28c-6,20-2,41,14,72c11,24,23,44,25,44S3106.6,11173.1,3102.6,11150.1z
		 M3164.6,11110.1c-3-8-6-5-6,6c-1,11,2,17,5,13C3166.6,11126.1,3167.6,11117.1,3164.6,11110.1z M5500.6,11105.1c6-33-2-51-14-32
		c-11,18-11,59,0,59C5491.6,11132.1,5497.6,11120.1,5500.6,11105.1z M5417.6,11082.1c0-5-4-10-10-10c-5,0-10,5-10,10c0,6,5,10,10,10
		C5413.6,11092.1,5417.6,11088.1,5417.6,11082.1z M5417.6,11047.1c0-8-4-15-10-15c-5,0-10,7-10,15s5,15,10,15
		C5413.6,11062.1,5417.6,11055.1,5417.6,11047.1z M3127.6,11022.1c0-5-4-10-10-10c-5,0-10,5-10,10c0,6,5,10,10,10
		C3123.6,11032.1,3127.6,11028.1,3127.6,11022.1z M5413.6,10756.1c-4-14-11-22-17-18c-8,4-7,10,0,17c6,6,11,20,12,32c0,11,3,14,6,7
		S5416.6,10770.1,5413.6,10756.1z M2987.6,10662.1c0-5-5-10-11-10c-5,0-7,5-4,10c3,6,8,10,11,10
		C2985.6,10672.1,2987.6,10668.1,2987.6,10662.1z M2874.6,10140.1c-3-8-6-5-6,6c-1,11,2,17,5,13
		C2876.6,10156.1,2877.6,10147.1,2874.6,10140.1z M4188.6,10142.1c-13-11-31-20-40-20c-12,1-11,5,8,20c13,11,31,20,40,20
		C4208.6,10161.1,4207.6,10157.1,4188.6,10142.1z M2928.6,10069.1c-8-8-11-7-11,4c0,20,13,34,18,19
		C2938.6,10085.1,2934.6,10075.1,2928.6,10069.1z M2707.6,9892.1c0-5-4-10-10-10c-5,0-10,5-10,10c0,6,5,10,10,10
		C2703.6,9902.1,2707.6,9898.1,2707.6,9892.1z M8107.6,9342.1c0-5-8-10-17-10c-15,0-16,2-3,10
		C8106.6,9354.1,8107.6,9354.1,8107.6,9342.1z M6347.6,8963.1c0-5-15-15-34-21s-40-18-46-26c-16-18-31-18-56,0c-25,19-10,34,47,45
		C6319.6,8973.1,6347.6,8974.1,6347.6,8963.1z M6104.6,8897.1c-1-43-12-45-32-6c-15,31-14,33,27,40
		C6102.6,8931.1,6105.6,8916.1,6104.6,8897.1z M5517.6,8794.1c0-10-45-32-65-32c-27,0-16,29,13,33
		C5513.6,8802.1,5517.6,8802.1,5517.6,8794.1z M5724.6,8796.1c-3-3-12-4-19-1c-8,3-5,6,6,6
		C5722.6,8802.1,5728.6,8799.1,5724.6,8796.1z M5404.6,8765.1c2-6-5-14-17-18c-26-8-33-3-24,19
		C5370.6,8785.1,5398.6,8784.1,5404.6,8765.1z M5044.6,8671.1c-14-8-16-14-6-25c6-8,21-14,33-14c58-1,78-18,55-50c-8-11-12-12-16-2
		c-9,22-41,13-47-14c-7-25-8-25-25-10c-16,15-19,14-29-9c-13-28-20-30-57-13c-26,12-32,23-15,33c6,3,10,15,10,27c0,17-4,19-25,14
		c-48-12-28,24,28,49C5002.6,8682.1,5083.6,8693.1,5044.6,8671.1z M5297.6,8632.1c0-5-12-10-26-10s-23,4-19,10c3,6,15,10,26,10
		C5288.6,8642.1,5297.6,8638.1,5297.6,8632.1z M5317.6,8593.1c0-11-39-21-45-11c-2,4-2,10,2,14
		C5284.6,8605.1,5317.6,8603.1,5317.6,8593.1z M4817.6,8582.1c0-5-4-10-10-10c-5,0-10,5-10,10c0,6,5,10,10,10
		C4813.6,8592.1,4817.6,8588.1,4817.6,8582.1z M5197.6,8572.1c0-5-4-10-9-10c-6,0-13,5-16,10c-3,6,1,10,9,10
		C5190.6,8582.1,5197.6,8578.1,5197.6,8572.1z M4832.6,8528.1c19-14,19-15,2-34c-24-26-98-46-143-39c-29,5-51-1-113-32
		c-82-42-136-59-163-53c-21,4-24,22-4,22c7,0,20,8,27,17c12,15,12,16-6,9c-11-4-42-15-68-23c-27-8-56-23-65-33c-11-13-23-18-39-14
		s-36-2-63-21c-21-15-47-25-57-22c-16,4-15,6,5,12c32,10,27,25-8,25c-24,0-35-8-55-40c-27-42-51-54-40-20c10,31-17,34-66,9
		c-43-22-43-22-19-32c19-8,21-11,8-14c-9-2-33,3-53,12c-28,11-41,12-51,4c-7-6-19-9-26-6s28,24,77,47c112,53,146,76,138,95
		c-3,8-13,15-22,15c-14,0-14,2-1,10c18,11,60,13,60,3c0-5-7-17-15-27c-22-29-19-36,18-36c65,1,153,55,183,113c19,35,34,26,34-19
		c0-19,5-34,11-34c5,0,45,18,87,39c66,34,92,41,182,51c58,6,121,15,140,19C4780.6,8544.1,4811.6,8543.1,4832.6,8528.1z
		 M3658.6,8293.1c-14-10-30-17-37-14c-7,2-17-5-24-16c-6-12-7-21-1-21c5,0,16-3,25-6c11-4,16-1,16,11s6,16,20,12c13-3,20,0,20,9
		c0,18,10,17,34-1c14-11,24-12,39-4c15,9,18,8,15-3c-6-17-47-37-178-88c-58-22-124-50-147-61c-41-21-44-21-68-5c-35,23-27,39,25,48
		c65,11,167,47,180,64c10,11,10,17,1,28c-13,15-6,22,54,54C3666.6,8319.1,3685.6,8314.1,3658.6,8293.1z M3437.6,8242.1
		c0-11-64-54-97-64c-13-4-23-3-23,2c0,6,12,13,28,17c25,7,25,8,7,15c-19,7-19,8,5,18c23,9,55,18,73,21
		C3434.6,8251.1,3437.6,8248.1,3437.6,8242.1z M3157.6,8152.1c0-5-2-10-4-10c-3,0-8,5-11,10c-3,6-1,10,4,10
		C3152.6,8162.1,3157.6,8158.1,3157.6,8152.1z"/>
	<path d="M4957.6,8642.1c-12-8-11-10,8-10c12,0,22,5,22,10C4987.6,8655.1,4976.6,8655.1,4957.6,8642.1z"/>
	<path d="M4972.6,8612.1c-3-5,3-10,14-10c12,0,21,5,21,10c0,6-6,10-14,10S4975.6,8618.1,4972.6,8612.1z"/>
	<path d="M4762.6,8492.1c-8-13,15-13,35,0c12,8,11,10-7,10C4778.6,8502.1,4765.6,8498.1,4762.6,8492.1z"/>
	<path d="M1309.6,12469.1c-12-12-26-47-33-77c-8-36-21-63-39-80c-31-29-167-106-180-103c-6,2-31-13-57-33c-48-36-139-86-183-99
		c-14-4-74-44-135-89c-60-45-142-103-180-128c-82-53-99-71-92-97c3-15-4-23-34-36c-47-22-99-72-149-145c-21-31-45-62-54-69
		s-16-21-16-31c0-9-14-35-31-56c-19-24-29-47-26-60c2-15-7-32-30-54c-20-20-30-37-25-44c11-14,13-56,3-56c-14,0-29-44-42-121
		c-10-63-9-88,5-174c17-99,43-176,65-189c6-4,11-15,11-25c0-17,7-18,65-13c59,4,68,2,86-17c31-33,61-24,76,22c15,46,8,85-17,89
		c-16,3-16,5,1,57c9,30,27,62,38,70c15,12,18,20,11,31c-16,25-11,59,9,70c22,11,92,134,111,193c13,41,45,61,83,52c19-5,24,1,40,44
		c13,37,31,62,68,93c62,53,102,119,63,104c-12-5-15,2-12,37c3,36,8,45,41,66c20,13,37,30,37,37c0,17,45,44,73,44c15,0,29,9,37,25
		c15,29,25,32,34,10c8-22,21-18,34,10c14,31,40,32,51,3c13-35,3-47-42-50c-50-4-59-29-12-34c89-9,99-29,57-104c-14-24-73-200-88-261
		c-8-31-23-76-34-100s-20-57-20-73s-8-38-17-48c-12-14-14-21-5-30c8-8,5-19-14-41c-14-16-23-36-20-44c4-8-1-24-9-36s-15-33-15-47
		s-7-36-16-48c-8-12-12-27-9-32c4-6-1-23-11-38c-10-14-23-45-29-67c-13-45-48-74-123-101c-127-46-278-107-289-116c-19-16-16-36,8-43
		c11-4,43-27,70-51c30-27,59-44,74-44c14,0,25-4,25-9c0-14-61-22-76-10c-10,8-24,3-56-19c-24-16-48-27-55-25c-6,2-28-5-49-16
		c-21-12-53-21-70-21c-39,0-63-24-47-48c5-10,19-17,29-17s24-6,29-13c9-11,16-11,38-1s35,10,69-1c24-7,59-12,79-11c26,1,38-3,43-15
		c5-13,9-15,18-6c17,17,48,15,54-3c4-9,19-15,35-15c22,0,30-6,35-25c7-27,5-35-20-100c-8-22-15-62-16-90c0-27-14-97-31-155
		c-36-120-46-250-34-424c8-125,25-159,95-193c75-37,241-26,225,15c-3,9,10,40,30,73c19,31,35,62,35,69c0,6,7,18,15,26
		c8,9,15,24,15,35c0,32,38,97,70,121c27,19,30,28,30,73c0,28,5,56,12,63c9,9,7,16-6,31c-21,23-20,34,14,164c13,48,27,87,32,87
		c17,0,36,26,43,61c16,73,38,108,103,166c37,33,96,77,132,98c109,65,146,90,149,100c6,15,59,53,113,81c33,17,54,36,67,63
		c21,40,41,54,65,45c8-3,17-1,21,5c3,6,16,11,28,11c22,0,22-1-3-20c-14-10-21-22-17-27c12-11,60,19,73,46c7,13,16,26,21,30
		c6,3,22,27,37,52c14,26,52,71,84,101c84,80,102,106,102,142c0,42,25,76,56,76c17,0,24-5,24-20c0-11,7-20,15-20s15,5,15,12
		c0,6,34,44,75,83c69,66,75,75,75,113c0,34,3,39,19,35c27-7,61,14,61,37c0,11,14,33,30,50c17,17,30,37,30,44s9,25,20,39s20,37,20,51
		c0,16,6,26,15,26c23,0,50,60,36,82c-9,15-5,21,24,41c35,24,35,24,15,38c-21,14-21,15,19,44c22,17,41,38,41,48s8,17,19,17
		c29,0,44,97,21,140c-8,14-5,19,12,23c19,5,20,10,14,58c-11,85-64,174-174,295c-161,175-264,261-368,306c-68,29-97,36-121,32
		c-23-4-33-2-33,6c0,20-197,6-315-23c-60-14-127-24-166-23c-58,1-72,5-112,34C1371.6,12498.1,1338.6,12501.1,1309.6,12469.1z
		 M2312.6,12048.1c15-80-78-294-222-511c-43-64-98-149-123-187c-32-50-64-84-113-119c-37-28-76-63-86-79c-10-17-65-73-122-125
		c-57-53-107-104-110-114c-4-10-21-24-38-31s-31-15-31-19c-1-36-222-193-249-176c-5,3-2,35,6,71c9,39,11,69,6,73c-5,3-9,22-9,41
		c1,23-3,34-11,33c-7-2-13,3-13,11s10,16,22,18c15,2,24,13,30,36c7,25,14,32,33,32c30,0,32,11,6,34c-34,31-32,124,2,110
		c21-8,36,17,47,77c9,46,18,62,60,102c49,48,60,67,40,67s-9,28,29,76c21,27,47,75,57,106l17,57l-27,26c-29,27-31,62-4,57
		c10-1,18,7,22,22c3,13,9,32,12,41c6,14,3,16-14,10c-40-12-26,26,37,104c33,39,38,42,81,40c37-2,54,3,81,24c19,14,55,29,79,32
		c25,4,72,15,105,26c87,27,211,49,280,49c33,0,67,5,75,10C2294.6,12089.1,2306.6,12083.1,2312.6,12048.1z"/>
	<path d="M7581.6,12400.1c4-29,7-61,7-70c0-21,15-24,22-5c4,12,0,59-9,105c-2,12-9,22-15,22
		C7578.6,12452.1,7577.6,12435.1,7581.6,12400.1z"/>
	<path d="M9863.6,12273.1c-4-7-5-15-2-18c9-9,19,4,14,18C9871.6,12284.1,9869.6,12284.1,9863.6,12273.1z"/>
	<path d="M6552.6,12052.1c-3-5-1-10,4-10c6,0,11,5,11,10c0,6-2,10-4,10C6560.6,12062.1,6555.6,12058.1,6552.6,12052.1z"/>
	<path d="M8801.6,11977.1c-9-22,1-29,15-11c8,10,9,16,1,21C8812.6,11990.1,8804.6,11986.1,8801.6,11977.1z"/>
	<path d="M3414.6,11746.1c-8-8,1-24,14-24c5,0,9,7,9,15C3437.6,11752.1,3425.6,11757.1,3414.6,11746.1z"/>
	<path d="M9267.6,11382.1c0-5,9-10,20-10s20,5,20,10c0,6-9,10-20,10S9267.6,11388.1,9267.6,11382.1z"/>
	<path d="M7300.6,11300.1c-13-16-26-58-19-58c8,0,38,61,33,66C7312.6,11311.1,7305.6,11307.1,7300.6,11300.1z"/>
	<path d="M7064.6,11105.1c-12-11-8-23,8-23c8,0,15,7,15,15C7087.6,11113.1,7075.6,11117.1,7064.6,11105.1z"/>
	<path d="M3067.6,10793.1c0-25,6-27,13-6c4,8,2,17-3,20C3071.6,10811.1,3067.6,10804.1,3067.6,10793.1z"/>
	<path d="M7148.6,10259.1c-30-33-24-56,8-30c13,11,22,27,20,37C7172.6,10282.1,7169.6,10281.1,7148.6,10259.1z"/>
	<path d="M3457.6,10072.1c-14-11-20-20-15-20c6,0,21,9,35,20s21,20,15,20C3487.6,10092.1,3471.6,10083.1,3457.6,10072.1z"/>
	<path d="M3355.6,10016.1c-16-8-28-21-28-29c0-12,10-9,40,11c22,15,40,28,40,30C3407.6,10036.1,3380.6,10030.1,3355.6,10016.1z"/>
	<path d="M7697.6,9953.1c0-5,5-13,10-16c6-3,10-2,10,4c0,5-4,13-10,16C7702.6,9960.1,7697.6,9959.1,7697.6,9953.1z"/>
	<path d="M7997.6,9068.1c0-7,7-19,15-26c20-16,38-1,29,23C8034.6,9085.1,7997.6,9088.1,7997.6,9068.1z"/>
	<path d="M8090.6,9075.1c-16-6-17-43-3-43c6,0,25,7,42,16c24,12,28,18,17,25C8131.6,9082.1,8109.6,9083.1,8090.6,9075.1z"/>
	<path d="M7787.6,9033.1c-15-29-13-31,25-31c39,0,44,9,17,33C7805.6,9057.1,7800.6,9056.1,7787.6,9033.1z"/>
	<path d="M7309.6,9012.1l-33-20l37-36c24-25,39-33,43-25c13,20,72,31,166,31c73,0,96,4,124,21c18,11,32,22,30,24s-24,0-49-5
		c-25-4-85-10-135-12c-84-3-90-2-90,17C7402.6,9035.1,7351.6,9038.1,7309.6,9012.1z"/>
	<path d="M7097.6,8955.1c-25-12-61-27-80-33c-20-5-44-16-55-25c-18-14-15-14,40-9c83,8,234,39,270,55c29,13,28,14-40,17
		c-38,2-74,6-80,10C7147.6,8974.1,7122.6,8968.1,7097.6,8955.1z"/>
	<path d="M7026.6,8956.1c-12-14-11-16,5-13c11,2,21,10,24,17C7060.6,8977.1,7042.6,8975.1,7026.6,8956.1z"/>
	<path d="M6875.6,8935.1c7-3,16-2,19,1c4,3-2,6-13,5C6870.6,8941.1,6867.6,8938.1,6875.6,8935.1z"/>
	<path d="M6504.6,8876.1c-13-13-7-24,14-24c11,0,19,5,17,12C6530.6,8878.1,6513.6,8885.1,6504.6,8876.1z"/>
	<path d="M5716.6,8706.1c-9-12-24-15-51-11c-21,3-38,1-38-4s-25-23-55-40c-87-49-88-71-4-50c29,8,62,14,75,14s24,5,24,12
		s18,15,40,19c22,3,40,7,40,9c0,1,4,17,9,35c8,28,7,32-8,32C5738.6,8722.1,5723.6,8715.1,5716.6,8706.1z"/>
	<path d="M5848.6,8702.1c-71-26-75-31-15-24c79,9,94,13,94,29C5927.6,8726.1,5914.6,8725.1,5848.6,8702.1z"/>
	<path d="M2501.6,7943.1c-50-23-69-45-30-35c36,9,35-18-1-36c-27-13-27-14-5-18c23-3,54,5,150,40c62,23,70,43,13,34
		c-22-3-48-9-58-12c-15-6-16-4-5,7c17,19,15,39-5,39C2550.6,7962.1,2523.6,7953.1,2501.6,7943.1z"/>
</g>
</svg>
