<?xml version="1.0" encoding="utf-8"?>
<!-- Generator: Adobe Illustrator 25.2.0, SVG Export Plug-In . SVG Version: 6.00 Build 0)  -->
<svg version="1.1" id="Ebene_1" xmlns="http://www.w3.org/2000/svg" xmlns:xlink="http://www.w3.org/1999/xlink" x="0px" y="0px"
	 viewBox="0 0 14.2 14.2" style="enable-background:new 0 0 14.2 14.2;" xml:space="preserve">
<style type="text/css">
	.st0{display:none;}
	.st1{display:inline;}
</style>
<g id="Insta">
	<g>
		<path d="M7.1,1.4c1.9,0,2.1,0,2.8,0s1.1,0.1,1.3,0.2C11.6,1.8,11.8,2,12,2.2s0.4,0.5,0.5,0.8s0.2,0.6,0.2,1.3s0,1,0,2.8
			c0,1.9,0,2.1,0,2.8s-0.1,1.1-0.2,1.3c-0.1,0.3-0.3,0.6-0.5,0.8s-0.5,0.4-0.8,0.5s-0.6,0.2-1.3,0.2s-1,0-2.8,0s-2.1,0-2.8,0
			s-1-0.1-1.3-0.2c-0.3-0.1-0.6-0.3-0.8-0.5c-0.2-0.3-0.4-0.5-0.5-0.8C1.6,11,1.5,10.6,1.4,9.9c0-0.7,0-0.9,0-2.8s0-2.1,0-2.8
			s0.1-1,0.2-1.3s0.3-0.6,0.5-0.8S2.7,1.8,3,1.7c0.3-0.1,0.6-0.2,1.3-0.2C5,1.4,5.2,1.4,7.1,1.4 M7.1,0.1c-1.9,0-2.1,0-2.9,0
			C3.5,0.2,3,0.3,2.5,0.5C2.1,0.7,1.7,0.9,1.3,1.3S0.7,2.1,0.5,2.5C0.3,3,0.2,3.5,0.2,4.2s0,1,0,2.9s0,2.1,0,2.9s0.1,1.3,0.3,1.7
			c0.2,0.5,0.4,0.9,0.8,1.2c0.4,0.4,0.8,0.6,1.2,0.8s1,0.3,1.7,0.3c0.8,0,1,0,2.9,0s2.1,0,2.9,0c0.7,0,1.3-0.1,1.7-0.3
			c0.5-0.2,0.9-0.4,1.2-0.8c0.4-0.4,0.6-0.8,0.8-1.2S14,10.8,14,10c0-0.7,0-1,0-2.9s0-2.1,0-2.9S13.9,3,13.7,2.5s-0.4-0.9-0.8-1.2
			s-0.8-0.6-1.2-0.8S10.8,0.2,10,0.2C9.3,0.1,9,0.1,7.1,0.1L7.1,0.1z"/>
		<path d="M7.1,3.5c-2,0-3.6,1.6-3.6,3.6s1.6,3.6,3.6,3.6s3.6-1.6,3.6-3.6S9.1,3.5,7.1,3.5z M7.1,9.5c-1.3,0-2.3-1-2.3-2.3
			s1-2.3,2.3-2.3s2.3,1,2.3,2.3S8.4,9.5,7.1,9.5z"/>
		<path d="M11.7,3.4c0,0.5-0.4,0.8-0.8,0.8S10,3.9,10,3.4s0.4-0.8,0.8-0.8C11.3,2.6,11.7,2.9,11.7,3.4z"/>
	</g>
</g>
<g id="Insta_Over" class="st0">
	<g class="st1">
		<path d="M7.1,1.4c1.9,0,2.1,0,2.8,0s1.1,0.1,1.3,0.2c0.3,0.1,0.6,0.3,0.8,0.5s0.4,0.5,0.5,0.8s0.2,0.6,0.2,1.3s0,1,0,2.8
			c0,1.9,0,2.1,0,2.8s-0.1,1.1-0.2,1.3c-0.1,0.3-0.3,0.6-0.5,0.8s-0.5,0.4-0.8,0.5s-0.6,0.2-1.3,0.2s-1,0-2.8,0s-2.1,0-2.8,0
			s-1-0.1-1.3-0.2c-0.3-0.1-0.6-0.3-0.8-0.5c-0.2-0.3-0.4-0.5-0.5-0.8C1.6,11,1.5,10.6,1.4,10c0-0.7,0-1,0-2.8s0-2.1,0-2.8
			s0.1-1,0.2-1.3C1.8,2.7,2,2.4,2.2,2.2S2.7,1.8,3,1.7c0.3-0.1,0.6-0.2,1.3-0.2C5,1.4,5.3,1.4,7.1,1.4 M7.1,0.1c-1.9,0-2.1,0-2.9,0
			C3.5,0.2,3,0.3,2.5,0.5C2.1,0.7,1.7,0.9,1.3,1.3S0.7,2.1,0.5,2.5C0.3,3,0.2,3.5,0.2,4.2s0,1,0,2.9s0,2.1,0,2.9s0.2,1.3,0.3,1.7
			c0.2,0.5,0.4,0.9,0.8,1.2c0.4,0.4,0.8,0.6,1.2,0.8s1,0.3,1.7,0.3s1,0,2.9,0s2.1,0,2.9,0c0.7,0,1.3-0.1,1.7-0.3
			c0.5-0.2,0.9-0.4,1.2-0.8c0.4-0.4,0.6-0.8,0.8-1.2S14,10.8,14,10c0-0.7,0-1,0-2.9s0-2.1,0-2.9S13.9,3,13.7,2.5s-0.4-0.9-0.8-1.2
			s-0.8-0.6-1.2-0.8S10.8,0.2,10,0.2C9.3,0.1,9,0.1,7.1,0.1L7.1,0.1z"/>
		<path d="M7.1,3.5c-2,0-3.6,1.6-3.6,3.6s1.6,3.6,3.6,3.6s3.6-1.6,3.6-3.6S9.1,3.5,7.1,3.5z M7.1,9.5c-1.3,0-2.3-1-2.3-2.3
			s1-2.3,2.3-2.3s2.3,1,2.3,2.3S8.4,9.5,7.1,9.5z"/>
		<path d="M11.7,3.4c0,0.5-0.4,0.8-0.8,0.8S10,3.9,10,3.4s0.4-0.8,0.8-0.8C11.3,2.6,11.7,2.9,11.7,3.4z"/>
	</g>
</g>
</svg>
