<?xml version="1.0" encoding="utf-8"?>
<!-- Generator: Adobe Illustrator 25.2.0, SVG Export Plug-In . SVG Version: 6.00 Build 0)  -->
<svg version="1.1" id="Ebene_1" xmlns="http://www.w3.org/2000/svg" xmlns:xlink="http://www.w3.org/1999/xlink" x="0px" y="0px"
	 viewBox="0 0 14.2 14.2" style="enable-background:new 0 0 14.2 14.2;" xml:space="preserve">
<style type="text/css">
	.st0{display:none;}
	.st1{display:inline;}
</style>
<g id="Facebook_Over">
	<path d="M13.3,0.1H0.9c-0.4,0-0.8,0.3-0.8,0.8v12.4c0,0.4,0.3,0.8,0.8,0.8h6.7V8.7H5.7V6.6h1.8V5c0-1.8,1.1-2.8,2.7-2.8
		c0.8,0,1.4,0.1,1.6,0.1v1.9h-1.1c-0.9,0-1.1,0.4-1.1,1v1.3h2.1l-0.3,2.1H9.7V14h3.6c0.4,0,0.8-0.4,0.8-0.8V0.9
		C14.1,0.4,13.7,0.1,13.3,0.1z"/>
</g>
<g id="Facebook" class="st0">
	<path class="st1" d="M13.3,0.1H0.9c-0.4,0-0.8,0.3-0.8,0.8v12.4c0,0.4,0.3,0.8,0.8,0.8h6.7V8.7H5.7V6.6h1.8V5
		c0-1.8,1.1-2.8,2.7-2.8c0.8,0,1.4,0.1,1.6,0.1v1.9h-1.1c-0.9,0-1.1,0.4-1.1,1v1.3h2.1l-0.3,2.1H9.7V14h3.6c0.4,0,0.8-0.4,0.8-0.8
		V0.9C14.1,0.4,13.7,0.1,13.3,0.1z"/>
</g>
</svg>
