<?xml version="1.0" encoding="utf-8"?>
<!-- Generator: Adobe Illustrator 25.2.0, SVG Export Plug-In . SVG Version: 6.00 Build 0)  -->
<svg version="1.1" id="Ebene_1" xmlns="http://www.w3.org/2000/svg" xmlns:xlink="http://www.w3.org/1999/xlink" x="0px" y="0px"
	 viewBox="0 0 19.8 14.4" style="enable-background:new 0 0 19.8 14.4;" xml:space="preserve">
<style type="text/css">
	.st0{display:none;}
	.st1{display:inline;fill:#8E9096;}
	.st2{display:inline;}
</style>
<g id="Youtube_Over">
	<path d="M18.7,2.7c-0.3-0.8-0.8-1.5-1.6-1.7c-1.5-0.4-7.3-0.4-7.3-0.4S4,0.6,2.6,1C1.8,1.3,1.1,1.9,1,2.7C0.6,4.2,0.6,7.2,0.6,7.2
		s0,3,0.4,4.5c0.3,0.8,0.8,1.5,1.6,1.6c1.5,0.4,7.3,0.4,7.3,0.4s5.8,0,7.3-0.4c0.8-0.3,1.5-0.8,1.6-1.7c0.4-1.5,0.4-4.5,0.4-4.5
		S19.1,4.2,18.7,2.7z M8,10V4.4l4.9,2.8L8,10z"/>
	<path d="M18.7,2.7c-0.3-0.8-0.8-1.5-1.6-1.7c-1.5-0.4-7.3-0.4-7.3-0.4S4,0.6,2.6,1C1.8,1.3,1.1,1.9,1,2.7C0.6,4.2,0.6,7.2,0.6,7.2
		s0,3,0.4,4.5c0.3,0.8,0.8,1.5,1.6,1.6c1.5,0.4,7.3,0.4,7.3,0.4s5.8,0,7.3-0.4c0.8-0.3,1.5-0.8,1.6-1.7c0.4-1.5,0.4-4.5,0.4-4.5
		S19.1,4.2,18.7,2.7z M8,10V4.4l4.9,2.8L8,10z"/>
</g>
<g id="Youtube" class="st0">
	<path class="st1" d="M16.5,3.8c-0.2-0.6-0.6-1.1-1.2-1.3c-1.1-0.3-5.5-0.3-5.5-0.3s-4.4,0-5.5,0.3C3.7,2.7,3.2,3.2,3.1,3.8
		C2.8,4.9,2.8,7.2,2.8,7.2s0,2.3,0.3,3.4c0.2,0.6,0.6,1.1,1.2,1.2c1.1,0.3,5.5,0.3,5.5,0.3s4.4,0,5.5-0.3c0.6-0.2,1.1-0.6,1.2-1.3
		c0.3-1.1,0.3-3.4,0.3-3.4S16.8,4.9,16.5,3.8z M8.4,9.3V5.1l3.7,2.1L8.4,9.3z"/>
	<path class="st2" d="M16.5,3.8c-0.2-0.6-0.6-1.1-1.2-1.3c-1.1-0.3-5.5-0.3-5.5-0.3s-4.4,0-5.5,0.3C3.7,2.7,3.2,3.2,3.1,3.8
		C2.8,4.9,2.8,7.2,2.8,7.2s0,2.3,0.3,3.4c0.2,0.6,0.6,1.1,1.2,1.2c1.1,0.3,5.5,0.3,5.5,0.3s4.4,0,5.5-0.3c0.6-0.2,1.1-0.6,1.2-1.3
		c0.3-1.1,0.3-3.4,0.3-3.4S16.8,4.9,16.5,3.8z M8.4,9.3V5.1l3.7,2.1L8.4,9.3z"/>
</g>
</svg>
