<?xml version="1.0" encoding="utf-8"?>
<!-- Generator: Adobe Illustrator 25.2.2, SVG Export Plug-In . SVG Version: 6.00 Build 0)  -->
<svg version="1.1" id="Form_2_Kopie_2_1_" xmlns="http://www.w3.org/2000/svg" xmlns:xlink="http://www.w3.org/1999/xlink" x="0px"
	 y="0px" viewBox="0 0 29 31.5" style="enable-background:new 0 0 29 31.5;" xml:space="preserve">
<style type="text/css">
	.st0{fill:#AC5E0C;}
</style>
<g>
	<path class="st0" d="M5.52,1.68c0.23-0.18,0.62,0.09,1.16,0.81l0.34-0.26l0.25-0.75l0.31,0.05l6.75,10.64
		c0.46-0.91,2.09-2.82,4.91-5.72l0.17-0.13l0.14,0.18c-3.5,3.75-5.11,5.81-4.81,6.2l1.49-1.98l0.14,0.18l2.73-3.21l0.14,0.18
		l0.04-0.31l0.17-0.13l0.31,0.05l0.73-0.84l0.69-0.53l1.34-0.74l0.14,0.18c0.27,0.36-0.36,1.31-1.91,2.86l0.14,0.18l0.04-0.31
		l0.17-0.13l1.34-0.74l0.04-0.31l0.41,0.53l-4.6,5.76l-2.53,4.19l-0.52,0.39l-1.37-0.37l-0.17,0.13l-0.14-0.18
		c-0.23-0.3-0.14-0.65,0.28-1.06l-0.41-0.53l-1.06-0.32L6.92,7.09l0.17-0.13l0.54,0.71l0.78,1.38l0.34-0.26l1.42,2.58l0.31,0.05
		l0.37,0.84l0.68,0.89l0.17-0.13L5.2,3.05c0.23-0.18,0.21-0.44-0.06-0.8l0.04-0.31L5.52,1.68z"/>
</g>
<g>
	<path class="st0" d="M5.37,13.76c0.23-0.18,0.62,0.09,1.16,0.81l0.34-0.26l0.25-0.75l0.31,0.05l6.75,10.64
		c0.46-0.91,2.09-2.82,4.91-5.72l0.17-0.13l0.14,0.18c-3.5,3.75-5.11,5.81-4.81,6.2l1.49-1.98l0.14,0.18l2.73-3.21l0.14,0.18
		l0.04-0.31l0.17-0.13l0.31,0.05l0.73-0.84l0.69-0.53l1.34-0.74l0.14,0.18c0.27,0.36-0.36,1.31-1.91,2.86l0.14,0.18l0.04-0.31
		l0.17-0.13l1.34-0.74l0.04-0.31l0.41,0.53l-4.6,5.76l-2.53,4.19l-0.52,0.39l-1.37-0.37l-0.17,0.13l-0.14-0.18
		c-0.23-0.3-0.14-0.65,0.28-1.06l-0.41-0.53l-1.06-0.32l-5.43-8.55l0.17-0.13l0.54,0.71l0.78,1.38l0.34-0.26l1.42,2.58l0.31,0.05
		l0.37,0.84l0.68,0.89l0.17-0.13l-6.51-9.97c0.23-0.18,0.21-0.44-0.06-0.8l0.04-0.31L5.37,13.76z"/>
</g>
</svg>
